<svg width="246" height="316" viewBox="0 0 246 316" fill="none" xmlns="http://www.w3.org/2000/svg">
<path d="M202.4 116.1L227.5 72.1999C228.3 70.7999 228.3 69.0999 227.5 67.6999L201.1 21.5999C201.1 21.5999 201.1 21.5999 201.1 21.4999C201 21.3999 200.9 21.2999 200.9 21.0999L200.8 20.9999C200.7 20.8999 200.6 20.6999 200.5 20.5999C200.4 20.4999 200.2 20.3999 200.1 20.2999L200 20.1999C199.9 20.0999 199.8 19.9999 199.7 19.9999C199.7 19.9999 199.6 19.9999 199.6 19.8999C199.3 19.6999 199 19.5999 198.6 19.4999H198.5C198.4 19.4999 198.2 19.3999 198.1 19.3999H198C197.8 19.3999 197.6 19.3999 197.5 19.3999H48.4998C48.2998 19.3999 48.0998 19.3999 47.9998 19.3999H47.8998C47.7998 19.3999 47.5998 19.3999 47.4998 19.4999H47.3998C47.0998 19.5999 46.6998 19.6999 46.3998 19.8999C46.3998 19.8999 46.2998 19.8999 46.2998 19.9999C46.1998 20.0999 46.0998 20.0999 45.9998 20.1999L45.8998 20.2999C45.7998 20.3999 45.5998 20.4999 45.4998 20.5999C45.3998 20.6999 45.2998 20.8999 45.1998 20.9999L45.0998 21.0999C44.9998 21.1999 44.8998 21.2999 44.8998 21.4999C44.8998 21.4999 44.8998 21.4999 44.8998 21.5999L17.8998 67.6999C17.0998 69.0999 17.0998 70.7999 17.8998 72.1999L43.6998 117.3V265.2C43.6998 265.4 43.6998 265.6 43.6998 265.7V265.8C43.6998 265.9 43.6998 266.1 43.7998 266.2V266.3C43.8998 266.6 43.9998 267 44.1998 267.3C44.1998 267.3 44.1998 267.4 44.2998 267.4C44.3998 267.5 44.3998 267.6 44.4998 267.7L44.5998 267.8C44.6998 267.9 44.7998 268.1 44.8998 268.2C44.9998 268.3 45.1998 268.4 45.2998 268.5L45.3998 268.6C45.4998 268.7 45.5998 268.8 45.7998 268.8C45.7998 268.8 45.7998 268.8 45.8998 268.8L91.9998 295.2C92.6998 295.6 93.4998 295.8 94.1998 295.8C94.9998 295.8 95.6998 295.6 96.3998 295.2L142.5 268.8C142.5 268.8 142.5 268.8 142.6 268.8C142.7 268.7 142.8 268.6 143 268.6L143.1 268.5C143.2 268.4 143.4 268.3 143.5 268.2C143.6 268.1 143.7 267.9 143.8 267.8L143.9 267.7C144 267.6 144.1 267.5 144.1 267.4C144.1 267.4 144.1 267.3 144.2 267.3C144.4 267 144.5 266.7 144.6 266.3V266.2C144.6 266.1 144.7 265.9 144.7 265.8V265.7C144.7 265.5 144.7 265.3 144.7 265.2V212.8H197C197.2 212.8 197.4 212.8 197.5 212.8H197.6C197.7 212.8 197.9 212.8 198 212.7H198.1C198.4 212.6 198.8 212.5 199.1 212.3C199.1 212.3 199.2 212.3 199.2 212.2C199.3 212.1 199.4 212.1 199.5 212L199.6 211.9C199.7 211.8 199.9 211.7 200 211.6C200.1 211.5 200.2 211.4 200.3 211.2L200.4 211.1C200.5 211 200.6 210.9 200.6 210.7C200.6 210.7 200.6 210.7 200.6 210.6L227 164.5C227.8 163.1 227.8 161.4 227 160L202.4 116.1ZM168.2 157.7H94.4998C93.3998 157.6 92.2998 158 91.3998 158.7L91.2998 158.8C91.1998 158.9 91.1998 158.9 91.0998 159C90.2998 159.8 89.7998 160.9 89.7998 162.2V236.2L52.5998 257.5V120.5H189.4L168.2 157.7ZM136 257.4L98.7998 236.1V173L136 210.2V257.4ZM168.2 65.3999H77.1998L55.8998 28.2999H189.5L168.2 65.3999ZM77.1998 74.3999H168.2L189.5 111.6H55.8998L77.1998 74.3999ZM197.2 107L176 69.8999L197.2 32.7999L218.4 69.8999L197.2 107ZM48.1998 32.7999L69.3998 69.8999L48.1998 107L26.8998 69.8999L48.1998 32.7999ZM94.2998 286.4L57.1998 265.2L94.2998 244L131.4 265.2L94.2998 286.4ZM142.3 203.8L105.1 166.6H168.2L189.5 203.8H142.3ZM197.2 199.3L176 162.2L197.2 125.1L218.4 162.2L197.2 199.3Z" fill="black"/>
</svg>
